<?xml version="1.0" standalone="no"?><!DOCTYPE svg PUBLIC "-//W3C//DTD SVG 1.1//EN" "http://www.w3.org/Graphics/SVG/1.1/DTD/svg11.dtd"><svg t="1701826547798" class="icon" viewBox="0 0 1024 1024" version="1.1" xmlns="http://www.w3.org/2000/svg" p-id="5301" xmlns:xlink="http://www.w3.org/1999/xlink" width="200" height="200"><path d="M667.072 0l236.32 236.32v708.896A78.784 78.784 0 0 1 824.608 1024H174.784A78.784 78.784 0 0 1 96 945.216V78.784A78.784 78.784 0 0 1 174.784 0h492.288z m-154.56 713.952c-11.968 0-22.048 4.096-30.24 12.288-4.8 4.832-7.872 10.464-9.12 16.864-1.28 6.304-1.92 15.616-1.92 27.904s0.64 21.568 1.92 27.84c1.28 6.4 4.32 12.032 9.12 16.896 8.192 8.192 18.272 12.288 30.272 12.288 5.344 0 10.336-0.8 14.944-2.368 4.64-1.6 8.736-3.84 12.288-6.848 3.584-3.008 6.56-6.72 8.96-11.104 1.856-3.328 3.232-6.976 4.224-11.008l0.832-4.128h-22.208l-0.8 2.784a21.504 21.504 0 0 1-5.504 8.8 17.568 17.568 0 0 1-12.576 4.32c-6.112 0-10.784-1.92-14.048-5.824a18.656 18.656 0 0 1-2.816-4 18.56 18.56 0 0 1-1.664-5.536 77.216 77.216 0 0 1-0.8-8.64 245.6 245.6 0 0 1-0.192-9.568v-11.36l0.192-6.016c0.16-3.52 0.416-6.4 0.8-8.672a18.56 18.56 0 0 1 1.664-5.504 18.656 18.656 0 0 1 2.816-4.032c3.264-3.872 7.936-5.824 14.048-5.824 5.344 0 9.536 1.44 12.576 4.32a21.376 21.376 0 0 1 5.504 8.8l0.8 2.784h22.208l-0.832-4.16a39.488 39.488 0 0 0-13.12-22.144c-7.36-6.08-16.512-9.152-27.296-9.152z m-152.32 0.96H286.304v112.16h73.888v-19.52H308.192v-27.264h44.288v-19.52H308.16v-26.336h52v-19.52z m36.224 0h-24.896l32.64 54.656-34.816 57.504h25.024l21.6-39.04 21.76 39.04h25.024l-34.976-57.504 32.64-54.656h-24.768L416 751.136l-19.52-36.224z m250.176 0h-73.888v112.16h73.92v-19.52h-52v-27.264h44.256v-19.52h-44.256v-26.336h51.968v-19.52z m43.328 0h-21.888v112.16h72.768v-19.52h-50.88V714.88zM405.888 256h-78.144l129.792 172.736-138.624 181.728h78.144l97.056-135.904 97.664 135.904h78.752l-139.264-181.728L661.12 256h-78.144l-88.832 126.944L405.888 256z" fill="#3DC377" p-id="5302"></path><path d="M667.072 0l236.32 236.32h-196.928a39.36 39.36 0 0 1-39.36-39.392V0z" fill="#81EFB0" p-id="5303"></path></svg>