<?xml version="1.0" standalone="no"?><!DOCTYPE svg PUBLIC "-//W3C//DTD SVG 1.1//EN" "http://www.w3.org/Graphics/SVG/1.1/DTD/svg11.dtd"><svg t="1701699505078" class="icon" viewBox="0 0 1024 1024" version="1.1" xmlns="http://www.w3.org/2000/svg" p-id="26461" xmlns:xlink="http://www.w3.org/1999/xlink" width="200" height="200"><path d="M362.667 480H192A117.547 117.547 0 0 1 74.667 362.667V192A117.547 117.547 0 0 1 192 74.667h170.667A117.547 117.547 0 0 1 480 192v170.667A117.547 117.547 0 0 1 362.667 480zM192 138.667A53.333 53.333 0 0 0 138.667 192v170.667A53.333 53.333 0 0 0 192 416h170.667A53.333 53.333 0 0 0 416 362.667V192a53.333 53.333 0 0 0-53.333-53.333z m725.333 64H576a32 32 0 0 1 0-64h341.333a32 32 0 0 1 0 64z m0 192H576a32 32 0 0 1 0-64h341.333a32 32 0 0 1 0 64z m0 277.333H576a32 32 0 0 1 0-64h341.333a32 32 0 0 1 0 64z m0 192H576a32 32 0 0 1 0-64h341.333a32 32 0 0 1 0 64z m-554.666 85.333H192A117.547 117.547 0 0 1 74.667 832V661.333A117.547 117.547 0 0 1 192 544h170.667A117.547 117.547 0 0 1 480 661.333V832a117.547 117.547 0 0 1-117.333 117.333zM192 608a53.333 53.333 0 0 0-53.333 53.333V832A53.333 53.333 0 0 0 192 885.333h170.667A53.333 53.333 0 0 0 416 832V661.333A53.333 53.333 0 0 0 362.667 608z" p-id="26462"></path></svg>