<?xml version="1.0" standalone="no"?><!DOCTYPE svg PUBLIC "-//W3C//DTD SVG 1.1//EN" "http://www.w3.org/Graphics/SVG/1.1/DTD/svg11.dtd"><svg t="1701697873086" class="icon" viewBox="0 0 1024 1024" version="1.1" xmlns="http://www.w3.org/2000/svg" p-id="15494" xmlns:xlink="http://www.w3.org/1999/xlink" width="200" height="200"><path d="M213.333 298.667c-23.564 0-42.666-19.103-42.666-42.667s19.102-42.667 42.666-42.667h34.678c23.564 0 42.667 19.103 42.667 42.667s-19.103 42.667-42.667 42.667h-34.678z m183.745 0c-23.564 0-42.667-19.103-42.667-42.667s19.103-42.667 42.667-42.667h453.41c23.565 0 42.668 19.103 42.668 42.667s-19.103 42.667-42.667 42.667H397.078z m-183.745 544.82c-23.564 0-42.666-19.102-42.666-42.666 0-23.565 19.102-42.667 42.666-42.667h34.678c23.564 0 42.667 19.102 42.667 42.667 0 23.564-19.103 42.666-42.667 42.666h-34.678z m183.745 0c-23.564 0-42.667-19.102-42.667-42.666 0-23.565 19.103-42.667 42.667-42.667h453.41c23.565 0 42.668 19.102 42.668 42.667 0 23.564-19.103 42.666-42.667 42.666H397.078z m-183.745-272.41c-23.564 0-42.666-19.103-42.666-42.667s19.102-42.666 42.666-42.666h34.678c23.564 0 42.667 19.102 42.667 42.666 0 23.564-19.103 42.667-42.667 42.667h-34.678z m183.745 0c-23.564 0-42.667-19.103-42.667-42.667s19.103-42.666 42.667-42.666h453.41c23.565 0 42.668 19.102 42.668 42.666 0 23.564-19.103 42.667-42.667 42.667H397.078z" fill="#797979" p-id="15495"></path></svg>