<?xml version="1.0" standalone="no"?><!DOCTYPE svg PUBLIC "-//W3C//DTD SVG 1.1//EN" "http://www.w3.org/Graphics/SVG/1.1/DTD/svg11.dtd"><svg t="1701828465835" class="icon" viewBox="0 0 1024 1024" version="1.1" xmlns="http://www.w3.org/2000/svg" p-id="4431" xmlns:xlink="http://www.w3.org/1999/xlink" width="200" height="200"><path d="M704 0H192C121.6 0 64 57.6 64 128v768c0 70.4 57.6 128 128 128h640c70.4 0 128-57.6 128-128V256L704 0z" fill="#E44D27" p-id="4432"></path><path d="M704 128c0 70.4 57.6 128 128 128h128L704 0v128z" fill="#F1662A" p-id="4433"></path><path d="M169.6 603.2V420.8h36.8v72h72v-72h36.8v184h-36.8v-80H206.4v80H169.6zM395.2 603.2v-152h-54.4v-30.4h145.6v30.4H432v152h-36.8zM510.4 603.2V420.8h56l33.6 124.8 33.6-124.8H688v184h-33.6v-144l-36.8 144h-35.2l-36.8-144v144h-35.2zM724.8 603.2V422.4h36.8v150.4h92.8v30.4h-129.6z" fill="#FFFFFF" p-id="4434"></path></svg>