<?xml version="1.0" standalone="no"?><!DOCTYPE svg PUBLIC "-//W3C//DTD SVG 1.1//EN" "http://www.w3.org/Graphics/SVG/1.1/DTD/svg11.dtd"><svg t="1701826526190" class="icon" viewBox="0 0 1024 1024" version="1.1" xmlns="http://www.w3.org/2000/svg" p-id="4249" xmlns:xlink="http://www.w3.org/1999/xlink" width="200" height="200"><path d="M792.032 992H232a120.128 120.128 0 0 1-120-120V152A120.128 120.128 0 0 1 232 32l433.6 0.32 244.704 245.376 1.696 594.304A120.128 120.128 0 0 1 792.032 992z m-263.36-346.56l-25.216 30.24a116.768 116.768 0 0 0 80 32c47.488 0 80.64-27.296 80.64-66.4a60.032 60.032 0 0 0-44.224-59.552l-28.8-12.16-2.016-0.8c-18.112-7.168-32.416-12.8-32.416-27.936 0-14.272 12.16-23.136 31.744-23.136a70.048 70.048 0 0 1 46.496 18.08l22.4-27.584A96.8 96.8 0 0 0 588.544 480a68.16 68.16 0 0 0-75.904 63.488 63.616 63.616 0 0 0 44.448 58.976l29.376 12.416 2.112 0.896c18.528 7.84 30.784 13.024 30.784 28.8s-12.8 25.184-34.976 25.184a86.016 86.016 0 0 1-55.712-24.32z m-169.344 1.472l-30.272 22.24a72.32 72.32 0 0 0 68.192 38.4 65.856 65.856 0 0 0 67.872-75.008V484.16h-43.84v144.96c0 28.48-8.8 40.64-29.376 40.64a37.152 37.152 0 0 1-32.576-22.848z" fill="#FC6F30" p-id="4250"></path><path d="M669.632 32L912 274.368h-181.792a57.248 57.248 0 0 1-60.576-60.576z" fill="#FFFFFF" opacity=".46" p-id="4251"></path></svg>