<?xml version="1.0" standalone="no"?><!DOCTYPE svg PUBLIC "-//W3C//DTD SVG 1.1//EN" "http://www.w3.org/Graphics/SVG/1.1/DTD/svg11.dtd"><svg t="1701826575775" class="icon" viewBox="0 0 1024 1024" version="1.1" xmlns="http://www.w3.org/2000/svg" p-id="6346" xmlns:xlink="http://www.w3.org/1999/xlink" width="200" height="200"><path d="M755.2 0H128v1024h819.2V192z" fill="#F55A23" p-id="6347"></path><path d="M595.2 204.8v160h160c-6.4-83.2-76.8-153.6-160-160zM582.4 192c6.4 0 6.4 0 0 0C684.8 192 768 275.2 768 377.6H582.4V192z m-51.2 32v211.2h204.8c0 108.8-89.6 198.4-204.8 198.4-115.2 0-204.8-89.6-204.8-204.8 6.4-115.2 96-204.8 204.8-204.8z" fill="#FFFFFF" p-id="6348"></path><path d="M70.4 704h684.8v256H70.4z" fill="#F45A23" p-id="6349"></path><path d="M83.2 710.4h665.6v236.8H83.2z" fill="#FFFFFF" p-id="6350"></path><path d="M544 902.4v-121.6h44.8v-19.2H473.6v19.2h44.8v121.6h25.6zM384 780.8v57.6h25.6c19.2 0 32-12.8 32-25.6 0-19.2-12.8-25.6-32-25.6H384z m-25.6-19.2h57.6c25.6 0 51.2 19.2 51.2 51.2s-19.2 51.2-51.2 51.2H384v44.8h-25.6v-147.2z m-102.4 19.2v57.6h25.6c19.2 0 32-12.8 32-25.6 0-19.2-12.8-25.6-32-25.6H256z m-25.6-19.2h57.6c25.6 0 51.2 19.2 51.2 51.2s-19.2 51.2-51.2 51.2H256v44.8h-25.6v-147.2z" fill="#F45A23" p-id="6351"></path><path d="M755.2 6.4l192 192h-192z" fill="#FFFFFF" p-id="6352"></path></svg>