<?xml version="1.0" standalone="no"?><!DOCTYPE svg PUBLIC "-//W3C//DTD SVG 1.1//EN" "http://www.w3.org/Graphics/SVG/1.1/DTD/svg11.dtd"><svg t="1701826613031" class="icon" viewBox="0 0 1024 1024" version="1.1" xmlns="http://www.w3.org/2000/svg" p-id="8396" xmlns:xlink="http://www.w3.org/1999/xlink" width="200" height="200"><path d="M773.12 238.592H921.6L693.8624 0v156.4672c0 46.2848 34.6112 82.1248 79.2576 82.1248z" fill="#5282C3" p-id="8397"></path><path d="M644.3008 156.4672V0H171.4176C126.976 0 92.16 35.84 92.16 82.1248v859.7504c0 46.2848 34.816 82.1248 79.2576 82.1248h670.9248c44.6464 0 79.2576-35.84 79.2576-82.1248v-649.216h-146.0224c-71.8848 0-131.2768-61.6448-131.2768-136.192z" fill="#64A9E8" p-id="8398"></path><path d="M228.352 603.5456v-35.2256h170.5984v35.2256h-62.464v175.104H290.816v-175.104h-62.464zM505.856 699.1872l-49.9712 79.6672h-48.9472l73.9328-109.1584-69.4272-101.1712h55.7056l43.2128 71.68 45.4656-71.68h47.7184L534.1184 669.696l73.9328 109.1584h-55.7056L505.856 699.1872zM615.0144 603.5456v-35.2256h170.5984v35.2256H722.944v175.104h-45.4656v-175.104h-62.464z" fill="#FFFFFF" p-id="8399"></path></svg>