<?xml version="1.0" standalone="no"?><!DOCTYPE svg PUBLIC "-//W3C//DTD SVG 1.1//EN" "http://www.w3.org/Graphics/SVG/1.1/DTD/svg11.dtd"><svg t="1701831814967" class="icon" viewBox="0 0 1024 1024" version="1.1" xmlns="http://www.w3.org/2000/svg" p-id="5456" xmlns:xlink="http://www.w3.org/1999/xlink" width="200" height="200"><path d="M874.660373 301.651825L597.328427 21.333227a77.226281 77.226281 0 0 0-14.506594-11.519943l-4.266646-2.133322h-2.986652A71.679642 71.679642 0 0 0 546.128683 0H200.957075A72.959635 72.959635 0 0 0 127.99744 72.106306v879.782268A72.959635 72.959635 0 0 0 200.957075 1023.99488h622.930219A71.252977 71.252977 0 0 0 895.9936 951.888574V352.424905a71.679642 71.679642 0 0 0-21.333227-50.77308zM473.595712 876.795616a42.666453 42.666453 0 1 1 42.666453-42.666453 42.666453 42.666453 0 0 1-42.666453 42.666453z m42.666453-141.225961H430.07593c-13.226601-85.332907 80.212932-122.879386 80.212932-170.665813a36.69315 36.69315 0 0 0-42.666453-37.973143 78.506274 78.506274 0 0 0-57.173048 29.439852l-53.333067-49.066421A163.839181 163.839181 0 0 1 482.129003 447.99776c69.972983 0 124.586044 33.279834 124.586043 111.786108S511.99552 661.330027 517.542159 735.99632z m65.706338-423.677881V110.506114l200.958996 201.812324z" fill="#5E5C5C" p-id="5457"></path></svg>